 <svg version="1.0" xmlns="http://www.w3.org/2000/svg" width="700.000000pt" height="700.000000pt" viewBox="0 0 700.000000 700.000000" preserveAspectRatio="xMidYMid meet">
<metadata>
Created by potrace 1.12, written by Peter Selinger 2001-2015
</metadata>
<g transform="translate(0.000000,700.000000) scale(0.100000,-0.100000)" fill="#000000" stroke="none">
<path d="M3277 5294 l-192 -386 -47 -20 c-27 -11 -48 -24 -48 -27 0 -4 13 -17
29 -29 l29 -21 284 100 c155 56 291 103 300 106 11 3 70 -32 160 -96 78 -55
144 -98 147 -96 2 3 -22 31 -55 63 -33 31 -103 107 -156 169 -76 89 -99 123
-111 165 -9 29 -41 144 -73 256 -31 111 -61 202 -65 202 -5 0 -96 -174 -202
-386z"></path>
<path d="M3490 4954 c-247 -90 -426 -157 -432 -163 -12 -11 -22 -321 -10 -321
5 0 49 14 96 31 l86 32 0 45 c0 85 64 172 125 172 32 0 62 -27 75 -68 7 -20
16 -41 20 -46 5 -5 42 4 84 19 l76 28 0 153 c0 117 -3 154 -12 153 -7 0 -56
-16 -108 -35z"></path>
<path d="M3640 4838 l1 -153 155 -140 c85 -77 159 -141 164 -143 6 -2 10 51
10 141 l0 146 28 21 c25 21 26 23 9 34 -10 6 -92 64 -182 129 -91 64 -170 117
-175 117 -6 0 -10 -59 -10 -152z"></path>
<path d="M3630 4632 c-48 -16 -590 -216 -665 -245 -49 -19 -91 -40 -93 -45 -4
-12 66 -62 85 -62 15 0 294 95 513 174 85 31 162 56 170 56 9 0 102 -83 207
-185 105 -102 196 -185 202 -185 15 0 81 41 81 50 0 7 -312 295 -460 425 -14
13 -32 20 -40 17z"></path>
<path d="M3278 4347 c-268 -93 -348 -125 -348 -137 0 -26 9 -29 48 -14 20 7
178 58 351 114 l313 100 136 -117 c75 -65 163 -142 196 -170 67 -58 76 -62 76
-34 0 20 -394 382 -414 380 -6 -1 -167 -55 -358 -122z"></path>
<path d="M3452 4294 c-21 -14 -22 -23 -22 -130 0 -127 -1 -126 70 -98 l40 16
0 95 c0 52 -5 103 -10 114 -13 23 -47 25 -78 3z"></path>
<path d="M3716 4258 c-3 -7 -7 -49 -10 -92 -5 -78 -4 -79 27 -110 l32 -31 6
70 5 70 2 -76 c2 -69 4 -77 32 -104 34 -33 38 -28 43 55 3 43 4 38 5 -26 2
-70 5 -83 25 -102 29 -28 35 -27 40 1 3 18 5 16 6 -7 1 -28 44 -86 63 -86 4 0
8 49 8 110 0 102 -1 110 -22 121 -18 10 -24 8 -35 -7 -12 -16 -13 -15 -13 13
0 17 -9 41 -19 54 -17 21 -22 22 -40 11 -19 -11 -21 -10 -21 16 0 40 -22 66
-49 59 -14 -3 -21 -1 -21 8 0 8 -5 26 -12 40 -12 26 -46 34 -52 13z m221 -300
c-3 -7 -5 -2 -5 12 0 14 2 19 5 13 2 -7 2 -19 0 -25z"></path>
<path d="M3300 4247 c-24 -12 -25 -16 -28 -131 l-3 -118 33 7 c18 4 43 13 55
21 21 13 22 19 17 112 -5 71 -11 100 -22 110 -19 15 -21 15 -52 -1z"></path>
<path d="M3155 4198 c-32 -18 -35 -28 -35 -142 l0 -108 28 5 c82 17 82 17 82
120 0 121 -21 156 -75 125z"></path>
<path d="M2995 4138 c-11 -6 -23 -16 -28 -22 -10 -14 -7 -215 3 -221 5 -3 29
4 54 15 l46 19 0 95 c0 73 -4 98 -16 110 -18 19 -32 20 -59 4z"></path>
<path d="M3259 3947 c-212 -73 -388 -135 -390 -139 -5 -8 60 -58 75 -58 6 0
164 47 352 105 188 58 348 105 356 105 8 0 100 -72 206 -160 l192 -160 40 6
c25 4 40 12 38 19 -4 17 -457 415 -471 414 -7 0 -186 -60 -398 -132z"></path>
<path d="M3510 3869 c-69 -21 -226 -69 -349 -106 -209 -64 -247 -81 -225 -103
6 -6 153 31 364 91 195 54 359 98 365 95 5 -2 93 -70 195 -150 102 -80 188
-146 193 -146 4 0 7 8 7 19 0 22 -383 342 -408 340 -9 -1 -73 -19 -142 -40z"></path>
<path d="M3395 3729 c-137 -38 -295 -81 -350 -95 -55 -15 -103 -29 -107 -33
-9 -8 -43 -520 -68 -1016 -23 -461 -37 -638 -106 -1374 -24 -260 -47 -477 -50
-482 -3 -5 -2 -14 1 -19 4 -6 19 3 36 20 45 45 174 121 499 295 314 167 508
281 629 366 112 79 236 202 267 266 l27 54 -7 192 c-14 395 -91 1540 -107
1584 -8 21 -386 314 -405 312 -5 0 -121 -31 -259 -70z"></path>
</g>
</svg>