<svg id="Layer_1" data-name="Layer 1" xmlns="http://www.w3.org/2000/svg" viewBox="0 0 146.08 497.19"><defs><style>.cls-1{fill:#fff;}</style></defs><path class="cls-1" d="M327.7,170.6l-19.2,38.6-4.7,2c-2.7,1.1-4.8,2.4-4.8,2.7s1.3,1.7,2.9,2.9l2.9,2.1,28.4-10c15.5-5.6,29.1-10.3,30-10.6,1.1-.3,7,3.2,16,9.6,7.8,5.5,14.4,9.8,14.7,9.6s-2.2-3.1-5.5-6.3-10.3-10.7-15.6-16.9c-7.6-8.9-9.9-12.3-11.1-16.5-.9-2.9-4.1-14.4-7.3-25.6s-6.1-20.2-6.5-20.2S338.3,149.4,327.7,170.6Z" transform="translate(-271.22 -132)"/><path class="cls-1" d="M349,204.6c-24.7,9-42.6,15.7-43.2,16.3-1.2,1.1-2.2,32.1-1,32.1a92.07,92.07,0,0,0,9.6-3.1l8.6-3.2v-4.5c0-8.5,6.4-17.2,12.5-17.2,3.2,0,6.2,2.7,7.5,6.8a24.74,24.74,0,0,0,2,4.6c.5.5,4.2-.4,8.4-1.9l7.6-2.8V216.4c0-11.7-.3-15.4-1.2-15.3C359.1,201.1,354.2,202.7,349,204.6Z" transform="translate(-271.22 -132)"/><path class="cls-1" d="M364,216.2l.1,15.3,15.5,14c8.5,7.7,15.9,14.1,16.4,14.3s1-5.1,1-14.1V231.1l2.8-2.1c2.5-2.1,2.6-2.3.9-3.4-1-.6-9.2-6.4-18.2-12.9S365.5,201,365,201,364,206.9,364,216.2Z" transform="translate(-271.22 -132)"/><path class="cls-1" d="M363,236.8c-4.8,1.6-59,21.6-66.5,24.5-4.9,1.9-9.1,4-9.3,4.5-.4,1.2,6.6,6.2,8.5,6.2,1.5,0,29.4-9.5,51.3-17.4,8.5-3.1,16.2-5.6,17-5.6s10.2,8.3,20.7,18.5S404.3,286,404.9,286c1.5,0,8.1-4.1,8.1-5,0-.7-31.2-29.5-46-42.5C365.6,237.2,363.8,236.5,363,236.8Z" transform="translate(-271.22 -132)"/><path class="cls-1" d="M327.8,265.3C301,274.6,293,277.8,293,279c0,2.6.9,2.9,4.8,1.4,2-.7,17.8-5.8,35.1-11.4l31.3-10,13.6,11.7c7.5,6.5,16.3,14.2,19.6,17,6.7,5.8,7.6,6.2,7.6,3.4,0-2-39.4-38.2-41.4-38C363,253.2,346.9,258.6,327.8,265.3Z" transform="translate(-271.22 -132)"/><path class="cls-1" d="M345.2,270.6c-2.1,1.4-2.2,2.3-2.2,13,0,12.7-.1,12.6,7,9.8l4-1.6v-9.5c0-5.2-.5-10.3-1-11.4C351.7,268.6,348.3,268.4,345.2,270.6Z" transform="translate(-271.22 -132)"/><path class="cls-1" d="M371.6,274.2a67.29,67.29,0,0,0-1,9.2c-.5,7.8-.4,7.9,2.7,11l3.2,3.1.6-7,.5-7,.2,7.6c.2,6.9.4,7.7,3.2,10.4,3.4,3.3,3.8,2.8,4.3-5.5.3-4.3.4-3.8.5,2.6.2,7,.5,8.3,2.5,10.2,2.9,2.8,3.5,2.7,4-.1.3-1.8.5-1.6.6.7.1,2.8,4.4,8.6,6.3,8.6.4,0,.8-4.9.8-11,0-10.2-.1-11-2.2-12.1-1.8-1-2.4-.8-3.5.7s-1.3,1.5-1.3-1.3a10.35,10.35,0,0,0-1.9-5.4c-1.7-2.1-2.2-2.2-4-1.1s-2.1,1-2.1-1.6c0-4-2.2-6.6-4.9-5.9-1.4.3-2.1.1-2.1-.8a11.54,11.54,0,0,0-1.2-4C375.6,272.9,372.2,272.1,371.6,274.2Zm22.1,30c-.3.7-.5.2-.5-1.2s.2-1.9.5-1.3A5.28,5.28,0,0,1,393.7,304.2Z" transform="translate(-271.22 -132)"/><path class="cls-1" d="M330,275.3c-2.4,1.2-2.5,1.6-2.8,13.1l-.3,11.8,3.3-.7a19.71,19.71,0,0,0,5.5-2.1c2.1-1.3,2.2-1.9,1.7-11.2-.5-7.1-1.1-10-2.2-11C333.3,273.7,333.1,273.7,330,275.3Z" transform="translate(-271.22 -132)"/><path class="cls-1" d="M315.5,280.2c-3.2,1.8-3.5,2.8-3.5,14.2v10.8l2.8-.5c8.2-1.7,8.2-1.7,8.2-12C323,280.6,320.9,277.1,315.5,280.2Z" transform="translate(-271.22 -132)"/><path class="cls-1" d="M299.5,286.2a11.36,11.36,0,0,0-2.8,2.2c-1,1.4-.7,21.5.3,22.1.5.3,2.9-.4,5.4-1.5l4.6-1.9v-9.5c0-7.3-.4-9.8-1.6-11C303.6,284.7,302.2,284.6,299.5,286.2Z" transform="translate(-271.22 -132)"/><path class="cls-1" d="M325.9,305.3c-21.2,7.3-38.8,13.5-39,13.9-.5.8,6,5.8,7.5,5.8.6,0,16.4-4.7,35.2-10.5S364.4,304,365.2,304s10,7.2,20.6,16L405,336l4-.6c2.5-.4,4-1.2,3.8-1.9-.4-1.7-45.7-41.5-47.1-41.4C365,292.1,347.1,298.1,325.9,305.3Z" transform="translate(-271.22 -132)"/><path class="cls-1" d="M351,313.1c-6.9,2.1-22.6,6.9-34.9,10.6-20.9,6.4-24.7,8.1-22.5,10.3.6.6,15.3-3.1,36.4-9.1,19.5-5.4,35.9-9.8,36.5-9.5s9.3,7,19.5,15S404.8,345,405.3,345s.7-.8.7-1.9c0-2.2-38.3-34.2-40.8-34C364.3,309.2,357.9,311,351,313.1Z" transform="translate(-271.22 -132)"/><path class="cls-1" d="M339.5,327.1c-13.7,3.8-29.5,8.1-35,9.5s-10.3,2.9-10.7,3.3c-.9.8-4.3,52-6.8,101.6-2.3,46.1-3.7,63.8-10.6,137.4-2.4,26-4.7,47.7-5,48.2a2.13,2.13,0,0,0,.1,1.9c.4.6,1.9-.3,3.6-2,4.5-4.5,17.4-12.1,49.9-29.5,31.4-16.7,50.8-28.1,62.9-36.6,11.2-7.9,23.6-20.2,26.7-26.6l2.7-5.4-.7-19.2c-1.4-39.5-9.1-154-10.7-158.4-.8-2.1-38.6-31.4-40.5-31.2C364.9,320.1,353.3,323.2,339.5,327.1Z" transform="translate(-271.22 -132)"/></svg>